<mxfile host="app.diagrams.net" modified="2022-11-09T15:59:30.417Z" agent="5.0 (Windows NT 10.0; Win64; x64) AppleWebKit/537.36 (KHTML, like Gecko) Chrome/107.0.0.0 Safari/537.36" etag="whteDTKBSN3qZsCo7Fa1" version="20.4.0" type="github">
  <diagram id="fPMPyYshQ41mcHCS2NZN" name="Page-1">
    <mxGraphModel dx="1887" dy="1122" grid="1" gridSize="10" guides="1" tooltips="1" connect="1" arrows="1" fold="1" page="1" pageScale="1" pageWidth="827" pageHeight="1169" math="0" shadow="0">
      <root>
        <mxCell id="0" />
        <mxCell id="1" parent="0" />
        <mxCell id="gwZ9yu9MSjtOXnEEBH9e-1" value="" style="whiteSpace=wrap;html=1;aspect=fixed;" parent="1" vertex="1">
          <mxGeometry x="90" y="1310" width="300" height="300" as="geometry" />
        </mxCell>
        <mxCell id="gwZ9yu9MSjtOXnEEBH9e-3" value="&lt;font style=&quot;font-size: 12px;&quot;&gt;Logged in as testuser&lt;/font&gt;" style="text;html=1;align=center;verticalAlign=middle;resizable=0;points=[];autosize=1;strokeColor=none;fillColor=none;fontSize=24;" parent="1" vertex="1">
          <mxGeometry x="90" y="1570" width="130" height="40" as="geometry" />
        </mxCell>
        <mxCell id="gwZ9yu9MSjtOXnEEBH9e-23" value="" style="group" parent="1" vertex="1" connectable="0">
          <mxGeometry x="115" y="1520" width="250" height="50" as="geometry" />
        </mxCell>
        <mxCell id="gwZ9yu9MSjtOXnEEBH9e-21" value="" style="group" parent="gwZ9yu9MSjtOXnEEBH9e-23" vertex="1" connectable="0">
          <mxGeometry x="200" width="50" height="50" as="geometry" />
        </mxCell>
        <mxCell id="gwZ9yu9MSjtOXnEEBH9e-7" value="" style="rounded=0;whiteSpace=wrap;html=1;" parent="gwZ9yu9MSjtOXnEEBH9e-21" vertex="1">
          <mxGeometry width="50" height="50" as="geometry" />
        </mxCell>
        <mxCell id="gwZ9yu9MSjtOXnEEBH9e-16" value="" style="ellipse;whiteSpace=wrap;html=1;aspect=fixed;" parent="gwZ9yu9MSjtOXnEEBH9e-21" vertex="1">
          <mxGeometry x="5" y="5" width="17.5" height="17.5" as="geometry" />
        </mxCell>
        <mxCell id="gwZ9yu9MSjtOXnEEBH9e-18" value="" style="ellipse;whiteSpace=wrap;html=1;aspect=fixed;" parent="gwZ9yu9MSjtOXnEEBH9e-21" vertex="1">
          <mxGeometry x="27.5" y="5" width="17.5" height="17.5" as="geometry" />
        </mxCell>
        <mxCell id="gwZ9yu9MSjtOXnEEBH9e-19" value="" style="ellipse;whiteSpace=wrap;html=1;aspect=fixed;" parent="gwZ9yu9MSjtOXnEEBH9e-21" vertex="1">
          <mxGeometry x="5" y="27.5" width="17.5" height="17.5" as="geometry" />
        </mxCell>
        <mxCell id="gwZ9yu9MSjtOXnEEBH9e-20" value="" style="ellipse;whiteSpace=wrap;html=1;aspect=fixed;" parent="gwZ9yu9MSjtOXnEEBH9e-21" vertex="1">
          <mxGeometry x="27.5" y="27.5" width="17.5" height="17.5" as="geometry" />
        </mxCell>
        <mxCell id="gwZ9yu9MSjtOXnEEBH9e-22" value="" style="group" parent="gwZ9yu9MSjtOXnEEBH9e-23" vertex="1" connectable="0">
          <mxGeometry width="250" height="50" as="geometry" />
        </mxCell>
        <mxCell id="gwZ9yu9MSjtOXnEEBH9e-6" value="" style="rounded=0;whiteSpace=wrap;html=1;" parent="gwZ9yu9MSjtOXnEEBH9e-22" vertex="1">
          <mxGeometry width="200" height="50" as="geometry" />
        </mxCell>
        <mxCell id="gwZ9yu9MSjtOXnEEBH9e-11" value="" style="ellipse;whiteSpace=wrap;html=1;aspect=fixed;" parent="gwZ9yu9MSjtOXnEEBH9e-22" vertex="1">
          <mxGeometry x="5" y="5" width="40" height="40" as="geometry" />
        </mxCell>
        <mxCell id="gwZ9yu9MSjtOXnEEBH9e-12" value="" style="ellipse;whiteSpace=wrap;html=1;aspect=fixed;" parent="gwZ9yu9MSjtOXnEEBH9e-22" vertex="1">
          <mxGeometry x="55" y="5" width="40" height="40" as="geometry" />
        </mxCell>
        <mxCell id="gwZ9yu9MSjtOXnEEBH9e-13" value="" style="ellipse;whiteSpace=wrap;html=1;aspect=fixed;" parent="gwZ9yu9MSjtOXnEEBH9e-22" vertex="1">
          <mxGeometry x="105" y="5" width="40" height="40" as="geometry" />
        </mxCell>
        <mxCell id="gwZ9yu9MSjtOXnEEBH9e-14" value="" style="ellipse;whiteSpace=wrap;html=1;aspect=fixed;" parent="gwZ9yu9MSjtOXnEEBH9e-22" vertex="1">
          <mxGeometry x="155" y="5" width="40" height="40" as="geometry" />
        </mxCell>
        <mxCell id="gwZ9yu9MSjtOXnEEBH9e-24" value="" style="group" parent="gwZ9yu9MSjtOXnEEBH9e-22" vertex="1" connectable="0">
          <mxGeometry y="-60" width="250" height="50" as="geometry" />
        </mxCell>
        <mxCell id="gwZ9yu9MSjtOXnEEBH9e-25" value="" style="group" parent="gwZ9yu9MSjtOXnEEBH9e-24" vertex="1" connectable="0">
          <mxGeometry x="200" width="50" height="50" as="geometry" />
        </mxCell>
        <mxCell id="gwZ9yu9MSjtOXnEEBH9e-26" value="" style="rounded=0;whiteSpace=wrap;html=1;" parent="gwZ9yu9MSjtOXnEEBH9e-25" vertex="1">
          <mxGeometry width="50" height="50" as="geometry" />
        </mxCell>
        <mxCell id="gwZ9yu9MSjtOXnEEBH9e-27" value="" style="ellipse;whiteSpace=wrap;html=1;aspect=fixed;" parent="gwZ9yu9MSjtOXnEEBH9e-25" vertex="1">
          <mxGeometry x="5" y="5" width="17.5" height="17.5" as="geometry" />
        </mxCell>
        <mxCell id="gwZ9yu9MSjtOXnEEBH9e-28" value="" style="ellipse;whiteSpace=wrap;html=1;aspect=fixed;" parent="gwZ9yu9MSjtOXnEEBH9e-25" vertex="1">
          <mxGeometry x="27.5" y="5" width="17.5" height="17.5" as="geometry" />
        </mxCell>
        <mxCell id="gwZ9yu9MSjtOXnEEBH9e-29" value="" style="ellipse;whiteSpace=wrap;html=1;aspect=fixed;" parent="gwZ9yu9MSjtOXnEEBH9e-25" vertex="1">
          <mxGeometry x="5" y="27.5" width="17.5" height="17.5" as="geometry" />
        </mxCell>
        <mxCell id="gwZ9yu9MSjtOXnEEBH9e-30" value="" style="ellipse;whiteSpace=wrap;html=1;aspect=fixed;" parent="gwZ9yu9MSjtOXnEEBH9e-25" vertex="1">
          <mxGeometry x="27.5" y="27.5" width="17.5" height="17.5" as="geometry" />
        </mxCell>
        <mxCell id="gwZ9yu9MSjtOXnEEBH9e-31" value="" style="group" parent="gwZ9yu9MSjtOXnEEBH9e-24" vertex="1" connectable="0">
          <mxGeometry width="250" height="50" as="geometry" />
        </mxCell>
        <mxCell id="gwZ9yu9MSjtOXnEEBH9e-32" value="" style="rounded=0;whiteSpace=wrap;html=1;" parent="gwZ9yu9MSjtOXnEEBH9e-31" vertex="1">
          <mxGeometry width="200" height="50" as="geometry" />
        </mxCell>
        <mxCell id="gwZ9yu9MSjtOXnEEBH9e-33" value="" style="ellipse;whiteSpace=wrap;html=1;aspect=fixed;" parent="gwZ9yu9MSjtOXnEEBH9e-31" vertex="1">
          <mxGeometry x="5" y="5" width="40" height="40" as="geometry" />
        </mxCell>
        <mxCell id="gwZ9yu9MSjtOXnEEBH9e-34" value="" style="ellipse;whiteSpace=wrap;html=1;aspect=fixed;" parent="gwZ9yu9MSjtOXnEEBH9e-31" vertex="1">
          <mxGeometry x="55" y="5" width="40" height="40" as="geometry" />
        </mxCell>
        <mxCell id="gwZ9yu9MSjtOXnEEBH9e-35" value="" style="ellipse;whiteSpace=wrap;html=1;aspect=fixed;" parent="gwZ9yu9MSjtOXnEEBH9e-31" vertex="1">
          <mxGeometry x="105" y="5" width="40" height="40" as="geometry" />
        </mxCell>
        <mxCell id="gwZ9yu9MSjtOXnEEBH9e-36" value="" style="ellipse;whiteSpace=wrap;html=1;aspect=fixed;" parent="gwZ9yu9MSjtOXnEEBH9e-31" vertex="1">
          <mxGeometry x="155" y="5" width="40" height="40" as="geometry" />
        </mxCell>
        <mxCell id="gwZ9yu9MSjtOXnEEBH9e-37" value="" style="group" parent="gwZ9yu9MSjtOXnEEBH9e-31" vertex="1" connectable="0">
          <mxGeometry y="-58" width="250" height="50" as="geometry" />
        </mxCell>
        <mxCell id="gwZ9yu9MSjtOXnEEBH9e-38" value="" style="group" parent="gwZ9yu9MSjtOXnEEBH9e-37" vertex="1" connectable="0">
          <mxGeometry x="200" width="50" height="50" as="geometry" />
        </mxCell>
        <mxCell id="gwZ9yu9MSjtOXnEEBH9e-39" value="" style="rounded=0;whiteSpace=wrap;html=1;" parent="gwZ9yu9MSjtOXnEEBH9e-38" vertex="1">
          <mxGeometry width="50" height="50" as="geometry" />
        </mxCell>
        <mxCell id="gwZ9yu9MSjtOXnEEBH9e-40" value="" style="ellipse;whiteSpace=wrap;html=1;aspect=fixed;" parent="gwZ9yu9MSjtOXnEEBH9e-38" vertex="1">
          <mxGeometry x="5" y="5" width="17.5" height="17.5" as="geometry" />
        </mxCell>
        <mxCell id="gwZ9yu9MSjtOXnEEBH9e-41" value="" style="ellipse;whiteSpace=wrap;html=1;aspect=fixed;" parent="gwZ9yu9MSjtOXnEEBH9e-38" vertex="1">
          <mxGeometry x="27.5" y="5" width="17.5" height="17.5" as="geometry" />
        </mxCell>
        <mxCell id="gwZ9yu9MSjtOXnEEBH9e-42" value="" style="ellipse;whiteSpace=wrap;html=1;aspect=fixed;" parent="gwZ9yu9MSjtOXnEEBH9e-38" vertex="1">
          <mxGeometry x="5" y="27.5" width="17.5" height="17.5" as="geometry" />
        </mxCell>
        <mxCell id="gwZ9yu9MSjtOXnEEBH9e-43" value="" style="ellipse;whiteSpace=wrap;html=1;aspect=fixed;" parent="gwZ9yu9MSjtOXnEEBH9e-38" vertex="1">
          <mxGeometry x="27.5" y="27.5" width="17.5" height="17.5" as="geometry" />
        </mxCell>
        <mxCell id="gwZ9yu9MSjtOXnEEBH9e-44" value="" style="group" parent="gwZ9yu9MSjtOXnEEBH9e-37" vertex="1" connectable="0">
          <mxGeometry width="250" height="50" as="geometry" />
        </mxCell>
        <mxCell id="gwZ9yu9MSjtOXnEEBH9e-45" value="" style="rounded=0;whiteSpace=wrap;html=1;" parent="gwZ9yu9MSjtOXnEEBH9e-44" vertex="1">
          <mxGeometry width="200" height="50" as="geometry" />
        </mxCell>
        <mxCell id="gwZ9yu9MSjtOXnEEBH9e-46" value="" style="ellipse;whiteSpace=wrap;html=1;aspect=fixed;" parent="gwZ9yu9MSjtOXnEEBH9e-44" vertex="1">
          <mxGeometry x="5" y="5" width="40" height="40" as="geometry" />
        </mxCell>
        <mxCell id="gwZ9yu9MSjtOXnEEBH9e-47" value="" style="ellipse;whiteSpace=wrap;html=1;aspect=fixed;" parent="gwZ9yu9MSjtOXnEEBH9e-44" vertex="1">
          <mxGeometry x="55" y="5" width="40" height="40" as="geometry" />
        </mxCell>
        <mxCell id="gwZ9yu9MSjtOXnEEBH9e-48" value="" style="ellipse;whiteSpace=wrap;html=1;aspect=fixed;" parent="gwZ9yu9MSjtOXnEEBH9e-44" vertex="1">
          <mxGeometry x="105" y="5" width="40" height="40" as="geometry" />
        </mxCell>
        <mxCell id="gwZ9yu9MSjtOXnEEBH9e-49" value="" style="ellipse;whiteSpace=wrap;html=1;aspect=fixed;" parent="gwZ9yu9MSjtOXnEEBH9e-44" vertex="1">
          <mxGeometry x="155" y="5" width="40" height="40" as="geometry" />
        </mxCell>
        <mxCell id="gwZ9yu9MSjtOXnEEBH9e-50" value="" style="group" parent="gwZ9yu9MSjtOXnEEBH9e-44" vertex="1" connectable="0">
          <mxGeometry y="-59" width="250" height="50" as="geometry" />
        </mxCell>
        <mxCell id="gwZ9yu9MSjtOXnEEBH9e-51" value="" style="group" parent="gwZ9yu9MSjtOXnEEBH9e-50" vertex="1" connectable="0">
          <mxGeometry x="200" width="50" height="50" as="geometry" />
        </mxCell>
        <mxCell id="gwZ9yu9MSjtOXnEEBH9e-52" value="" style="rounded=0;whiteSpace=wrap;html=1;" parent="gwZ9yu9MSjtOXnEEBH9e-51" vertex="1">
          <mxGeometry width="50" height="50" as="geometry" />
        </mxCell>
        <mxCell id="gwZ9yu9MSjtOXnEEBH9e-53" value="" style="ellipse;whiteSpace=wrap;html=1;aspect=fixed;" parent="gwZ9yu9MSjtOXnEEBH9e-51" vertex="1">
          <mxGeometry x="5" y="5" width="17.5" height="17.5" as="geometry" />
        </mxCell>
        <mxCell id="gwZ9yu9MSjtOXnEEBH9e-54" value="" style="ellipse;whiteSpace=wrap;html=1;aspect=fixed;" parent="gwZ9yu9MSjtOXnEEBH9e-51" vertex="1">
          <mxGeometry x="27.5" y="5" width="17.5" height="17.5" as="geometry" />
        </mxCell>
        <mxCell id="gwZ9yu9MSjtOXnEEBH9e-55" value="" style="ellipse;whiteSpace=wrap;html=1;aspect=fixed;" parent="gwZ9yu9MSjtOXnEEBH9e-51" vertex="1">
          <mxGeometry x="5" y="27.5" width="17.5" height="17.5" as="geometry" />
        </mxCell>
        <mxCell id="gwZ9yu9MSjtOXnEEBH9e-56" value="" style="ellipse;whiteSpace=wrap;html=1;aspect=fixed;" parent="gwZ9yu9MSjtOXnEEBH9e-51" vertex="1">
          <mxGeometry x="27.5" y="27.5" width="17.5" height="17.5" as="geometry" />
        </mxCell>
        <mxCell id="gwZ9yu9MSjtOXnEEBH9e-57" value="" style="group" parent="gwZ9yu9MSjtOXnEEBH9e-50" vertex="1" connectable="0">
          <mxGeometry width="200" height="50" as="geometry" />
        </mxCell>
        <mxCell id="gwZ9yu9MSjtOXnEEBH9e-58" value="" style="rounded=0;whiteSpace=wrap;html=1;" parent="gwZ9yu9MSjtOXnEEBH9e-57" vertex="1">
          <mxGeometry width="200" height="50" as="geometry" />
        </mxCell>
        <mxCell id="gwZ9yu9MSjtOXnEEBH9e-59" value="" style="ellipse;whiteSpace=wrap;html=1;aspect=fixed;" parent="gwZ9yu9MSjtOXnEEBH9e-57" vertex="1">
          <mxGeometry x="5" y="5" width="40" height="40" as="geometry" />
        </mxCell>
        <mxCell id="gwZ9yu9MSjtOXnEEBH9e-60" value="" style="ellipse;whiteSpace=wrap;html=1;aspect=fixed;" parent="gwZ9yu9MSjtOXnEEBH9e-57" vertex="1">
          <mxGeometry x="55" y="5" width="40" height="40" as="geometry" />
        </mxCell>
        <mxCell id="gwZ9yu9MSjtOXnEEBH9e-61" value="" style="ellipse;whiteSpace=wrap;html=1;aspect=fixed;" parent="gwZ9yu9MSjtOXnEEBH9e-57" vertex="1">
          <mxGeometry x="105" y="5" width="40" height="40" as="geometry" />
        </mxCell>
        <mxCell id="gwZ9yu9MSjtOXnEEBH9e-62" value="" style="ellipse;whiteSpace=wrap;html=1;aspect=fixed;" parent="gwZ9yu9MSjtOXnEEBH9e-57" vertex="1">
          <mxGeometry x="155" y="5" width="40" height="40" as="geometry" />
        </mxCell>
        <mxCell id="c6tONa4OQSoYcZHLHS9h-14" value="" style="group" vertex="1" connectable="0" parent="1">
          <mxGeometry width="400" height="225" as="geometry" />
        </mxCell>
        <mxCell id="L5rqq4pgs3yzmCQWjZke-1" value="" style="whiteSpace=wrap;html=1;aspect=fixed;" parent="c6tONa4OQSoYcZHLHS9h-14" vertex="1">
          <mxGeometry width="400" height="225" as="geometry" />
        </mxCell>
        <mxCell id="c6tONa4OQSoYcZHLHS9h-6" value="" style="ellipse;whiteSpace=wrap;html=1;" vertex="1" parent="c6tONa4OQSoYcZHLHS9h-14">
          <mxGeometry x="335" y="170" width="40" height="40" as="geometry" />
        </mxCell>
        <mxCell id="c6tONa4OQSoYcZHLHS9h-2" value="" style="ellipse;whiteSpace=wrap;html=1;" vertex="1" parent="c6tONa4OQSoYcZHLHS9h-14">
          <mxGeometry x="40" y="200" width="20" height="20" as="geometry" />
        </mxCell>
        <mxCell id="c6tONa4OQSoYcZHLHS9h-3" value="" style="ellipse;whiteSpace=wrap;html=1;" vertex="1" parent="c6tONa4OQSoYcZHLHS9h-14">
          <mxGeometry x="10" y="7.5" width="40" height="40" as="geometry" />
        </mxCell>
        <mxCell id="c6tONa4OQSoYcZHLHS9h-4" value="" style="ellipse;whiteSpace=wrap;html=1;" vertex="1" parent="c6tONa4OQSoYcZHLHS9h-14">
          <mxGeometry x="340" y="80" width="30" height="30" as="geometry" />
        </mxCell>
        <mxCell id="c6tONa4OQSoYcZHLHS9h-5" value="" style="ellipse;whiteSpace=wrap;html=1;" vertex="1" parent="c6tONa4OQSoYcZHLHS9h-14">
          <mxGeometry x="340" y="17.5" width="20" height="20" as="geometry" />
        </mxCell>
        <mxCell id="c6tONa4OQSoYcZHLHS9h-7" value="" style="ellipse;whiteSpace=wrap;html=1;" vertex="1" parent="c6tONa4OQSoYcZHLHS9h-14">
          <mxGeometry x="328" y="137.5" width="20" height="20" as="geometry" />
        </mxCell>
        <mxCell id="c6tONa4OQSoYcZHLHS9h-8" value="" style="ellipse;whiteSpace=wrap;html=1;" vertex="1" parent="c6tONa4OQSoYcZHLHS9h-14">
          <mxGeometry x="130" y="195" width="30" height="30" as="geometry" />
        </mxCell>
        <mxCell id="c6tONa4OQSoYcZHLHS9h-9" value="" style="ellipse;whiteSpace=wrap;html=1;" vertex="1" parent="c6tONa4OQSoYcZHLHS9h-14">
          <mxGeometry x="270" y="184.5" width="30" height="30" as="geometry" />
        </mxCell>
        <mxCell id="c6tONa4OQSoYcZHLHS9h-10" value="" style="ellipse;whiteSpace=wrap;html=1;" vertex="1" parent="c6tONa4OQSoYcZHLHS9h-14">
          <mxGeometry x="110" width="20" height="20" as="geometry" />
        </mxCell>
        <mxCell id="c6tONa4OQSoYcZHLHS9h-11" value="" style="ellipse;whiteSpace=wrap;html=1;" vertex="1" parent="c6tONa4OQSoYcZHLHS9h-14">
          <mxGeometry x="220" width="30" height="30" as="geometry" />
        </mxCell>
        <mxCell id="c6tONa4OQSoYcZHLHS9h-12" value="" style="ellipse;whiteSpace=wrap;html=1;" vertex="1" parent="c6tONa4OQSoYcZHLHS9h-14">
          <mxGeometry x="10" y="117.5" width="30" height="30" as="geometry" />
        </mxCell>
        <mxCell id="c6tONa4OQSoYcZHLHS9h-13" value="" style="ellipse;whiteSpace=wrap;html=1;" vertex="1" parent="c6tONa4OQSoYcZHLHS9h-14">
          <mxGeometry x="40" y="70" width="20" height="20" as="geometry" />
        </mxCell>
        <mxCell id="c6tONa4OQSoYcZHLHS9h-1" value="" style="whiteSpace=wrap;html=1;aspect=fixed;" vertex="1" parent="c6tONa4OQSoYcZHLHS9h-14">
          <mxGeometry x="72" y="40.5" width="256" height="144" as="geometry" />
        </mxCell>
        <mxCell id="L5rqq4pgs3yzmCQWjZke-4" value="Sign up" style="rounded=1;whiteSpace=wrap;html=1;" parent="c6tONa4OQSoYcZHLHS9h-14" vertex="1">
          <mxGeometry x="140" y="147.5" width="120" height="30" as="geometry" />
        </mxCell>
        <mxCell id="L5rqq4pgs3yzmCQWjZke-5" value="Log in" style="rounded=1;whiteSpace=wrap;html=1;" parent="c6tONa4OQSoYcZHLHS9h-14" vertex="1">
          <mxGeometry x="140" y="107.5" width="120" height="30" as="geometry" />
        </mxCell>
        <mxCell id="L5rqq4pgs3yzmCQWjZke-6" value="&lt;font style=&quot;font-size: 24px;&quot;&gt;MasterMind&lt;/font&gt;" style="text;html=1;align=center;verticalAlign=middle;resizable=0;points=[];autosize=1;strokeColor=none;fillColor=none;" parent="c6tONa4OQSoYcZHLHS9h-14" vertex="1">
          <mxGeometry x="130" y="47.5" width="140" height="20" as="geometry" />
        </mxCell>
        <mxCell id="c6tONa4OQSoYcZHLHS9h-16" value="" style="group" vertex="1" connectable="0" parent="1">
          <mxGeometry y="250" width="400" height="225" as="geometry" />
        </mxCell>
        <mxCell id="c6tONa4OQSoYcZHLHS9h-17" value="" style="whiteSpace=wrap;html=1;aspect=fixed;" vertex="1" parent="c6tONa4OQSoYcZHLHS9h-16">
          <mxGeometry width="400" height="225" as="geometry" />
        </mxCell>
        <mxCell id="c6tONa4OQSoYcZHLHS9h-18" value="" style="ellipse;whiteSpace=wrap;html=1;" vertex="1" parent="c6tONa4OQSoYcZHLHS9h-16">
          <mxGeometry x="335" y="170" width="40" height="40" as="geometry" />
        </mxCell>
        <mxCell id="c6tONa4OQSoYcZHLHS9h-19" value="" style="ellipse;whiteSpace=wrap;html=1;" vertex="1" parent="c6tONa4OQSoYcZHLHS9h-16">
          <mxGeometry x="40" y="200" width="20" height="20" as="geometry" />
        </mxCell>
        <mxCell id="c6tONa4OQSoYcZHLHS9h-20" value="" style="ellipse;whiteSpace=wrap;html=1;" vertex="1" parent="c6tONa4OQSoYcZHLHS9h-16">
          <mxGeometry x="10" y="7.5" width="40" height="40" as="geometry" />
        </mxCell>
        <mxCell id="c6tONa4OQSoYcZHLHS9h-21" value="" style="ellipse;whiteSpace=wrap;html=1;" vertex="1" parent="c6tONa4OQSoYcZHLHS9h-16">
          <mxGeometry x="340" y="80" width="30" height="30" as="geometry" />
        </mxCell>
        <mxCell id="c6tONa4OQSoYcZHLHS9h-22" value="" style="ellipse;whiteSpace=wrap;html=1;" vertex="1" parent="c6tONa4OQSoYcZHLHS9h-16">
          <mxGeometry x="340" y="17.5" width="20" height="20" as="geometry" />
        </mxCell>
        <mxCell id="c6tONa4OQSoYcZHLHS9h-23" value="" style="ellipse;whiteSpace=wrap;html=1;" vertex="1" parent="c6tONa4OQSoYcZHLHS9h-16">
          <mxGeometry x="328" y="137.5" width="20" height="20" as="geometry" />
        </mxCell>
        <mxCell id="c6tONa4OQSoYcZHLHS9h-24" value="" style="ellipse;whiteSpace=wrap;html=1;" vertex="1" parent="c6tONa4OQSoYcZHLHS9h-16">
          <mxGeometry x="130" y="195" width="30" height="30" as="geometry" />
        </mxCell>
        <mxCell id="c6tONa4OQSoYcZHLHS9h-25" value="" style="ellipse;whiteSpace=wrap;html=1;" vertex="1" parent="c6tONa4OQSoYcZHLHS9h-16">
          <mxGeometry x="270" y="184.5" width="30" height="30" as="geometry" />
        </mxCell>
        <mxCell id="c6tONa4OQSoYcZHLHS9h-26" value="" style="ellipse;whiteSpace=wrap;html=1;" vertex="1" parent="c6tONa4OQSoYcZHLHS9h-16">
          <mxGeometry x="110" width="20" height="20" as="geometry" />
        </mxCell>
        <mxCell id="c6tONa4OQSoYcZHLHS9h-27" value="" style="ellipse;whiteSpace=wrap;html=1;" vertex="1" parent="c6tONa4OQSoYcZHLHS9h-16">
          <mxGeometry x="220" width="30" height="30" as="geometry" />
        </mxCell>
        <mxCell id="c6tONa4OQSoYcZHLHS9h-28" value="" style="ellipse;whiteSpace=wrap;html=1;" vertex="1" parent="c6tONa4OQSoYcZHLHS9h-16">
          <mxGeometry x="10" y="117.5" width="30" height="30" as="geometry" />
        </mxCell>
        <mxCell id="c6tONa4OQSoYcZHLHS9h-29" value="" style="ellipse;whiteSpace=wrap;html=1;" vertex="1" parent="c6tONa4OQSoYcZHLHS9h-16">
          <mxGeometry x="40" y="70" width="20" height="20" as="geometry" />
        </mxCell>
        <mxCell id="c6tONa4OQSoYcZHLHS9h-30" value="" style="whiteSpace=wrap;html=1;aspect=fixed;" vertex="1" parent="c6tONa4OQSoYcZHLHS9h-16">
          <mxGeometry x="72" y="40.5" width="256" height="144" as="geometry" />
        </mxCell>
        <mxCell id="c6tONa4OQSoYcZHLHS9h-31" value="Start" style="rounded=1;whiteSpace=wrap;html=1;" vertex="1" parent="c6tONa4OQSoYcZHLHS9h-16">
          <mxGeometry x="140" y="147.5" width="120" height="30" as="geometry" />
        </mxCell>
        <mxCell id="c6tONa4OQSoYcZHLHS9h-32" value="Rules" style="rounded=1;whiteSpace=wrap;html=1;" vertex="1" parent="c6tONa4OQSoYcZHLHS9h-16">
          <mxGeometry x="140" y="107.5" width="120" height="30" as="geometry" />
        </mxCell>
        <mxCell id="c6tONa4OQSoYcZHLHS9h-33" value="&lt;font style=&quot;font-size: 24px;&quot;&gt;MasterMind&lt;/font&gt;" style="text;html=1;align=center;verticalAlign=middle;resizable=0;points=[];autosize=1;strokeColor=none;fillColor=none;" vertex="1" parent="c6tONa4OQSoYcZHLHS9h-16">
          <mxGeometry x="130" y="47.5" width="140" height="20" as="geometry" />
        </mxCell>
        <mxCell id="c6tONa4OQSoYcZHLHS9h-34" value="" style="group" vertex="1" connectable="0" parent="1">
          <mxGeometry x="427" width="400" height="225" as="geometry" />
        </mxCell>
        <mxCell id="c6tONa4OQSoYcZHLHS9h-35" value="" style="whiteSpace=wrap;html=1;aspect=fixed;" vertex="1" parent="c6tONa4OQSoYcZHLHS9h-34">
          <mxGeometry width="400" height="225" as="geometry" />
        </mxCell>
        <mxCell id="c6tONa4OQSoYcZHLHS9h-36" value="" style="ellipse;whiteSpace=wrap;html=1;" vertex="1" parent="c6tONa4OQSoYcZHLHS9h-34">
          <mxGeometry x="335" y="170" width="40" height="40" as="geometry" />
        </mxCell>
        <mxCell id="c6tONa4OQSoYcZHLHS9h-37" value="" style="ellipse;whiteSpace=wrap;html=1;" vertex="1" parent="c6tONa4OQSoYcZHLHS9h-34">
          <mxGeometry x="40" y="200" width="20" height="20" as="geometry" />
        </mxCell>
        <mxCell id="c6tONa4OQSoYcZHLHS9h-38" value="" style="ellipse;whiteSpace=wrap;html=1;" vertex="1" parent="c6tONa4OQSoYcZHLHS9h-34">
          <mxGeometry x="10" y="7.5" width="40" height="40" as="geometry" />
        </mxCell>
        <mxCell id="c6tONa4OQSoYcZHLHS9h-39" value="" style="ellipse;whiteSpace=wrap;html=1;" vertex="1" parent="c6tONa4OQSoYcZHLHS9h-34">
          <mxGeometry x="340" y="80" width="30" height="30" as="geometry" />
        </mxCell>
        <mxCell id="c6tONa4OQSoYcZHLHS9h-40" value="" style="ellipse;whiteSpace=wrap;html=1;" vertex="1" parent="c6tONa4OQSoYcZHLHS9h-34">
          <mxGeometry x="340" y="17.5" width="20" height="20" as="geometry" />
        </mxCell>
        <mxCell id="c6tONa4OQSoYcZHLHS9h-41" value="" style="ellipse;whiteSpace=wrap;html=1;" vertex="1" parent="c6tONa4OQSoYcZHLHS9h-34">
          <mxGeometry x="328" y="137.5" width="20" height="20" as="geometry" />
        </mxCell>
        <mxCell id="c6tONa4OQSoYcZHLHS9h-42" value="" style="ellipse;whiteSpace=wrap;html=1;" vertex="1" parent="c6tONa4OQSoYcZHLHS9h-34">
          <mxGeometry x="130" y="195" width="30" height="30" as="geometry" />
        </mxCell>
        <mxCell id="c6tONa4OQSoYcZHLHS9h-43" value="" style="ellipse;whiteSpace=wrap;html=1;" vertex="1" parent="c6tONa4OQSoYcZHLHS9h-34">
          <mxGeometry x="270" y="184.5" width="30" height="30" as="geometry" />
        </mxCell>
        <mxCell id="c6tONa4OQSoYcZHLHS9h-44" value="" style="ellipse;whiteSpace=wrap;html=1;" vertex="1" parent="c6tONa4OQSoYcZHLHS9h-34">
          <mxGeometry x="110" width="20" height="20" as="geometry" />
        </mxCell>
        <mxCell id="c6tONa4OQSoYcZHLHS9h-45" value="" style="ellipse;whiteSpace=wrap;html=1;" vertex="1" parent="c6tONa4OQSoYcZHLHS9h-34">
          <mxGeometry x="220" width="30" height="30" as="geometry" />
        </mxCell>
        <mxCell id="c6tONa4OQSoYcZHLHS9h-46" value="" style="ellipse;whiteSpace=wrap;html=1;" vertex="1" parent="c6tONa4OQSoYcZHLHS9h-34">
          <mxGeometry x="10" y="117.5" width="30" height="30" as="geometry" />
        </mxCell>
        <mxCell id="c6tONa4OQSoYcZHLHS9h-47" value="" style="ellipse;whiteSpace=wrap;html=1;" vertex="1" parent="c6tONa4OQSoYcZHLHS9h-34">
          <mxGeometry x="40" y="70" width="20" height="20" as="geometry" />
        </mxCell>
        <mxCell id="c6tONa4OQSoYcZHLHS9h-48" value="" style="whiteSpace=wrap;html=1;aspect=fixed;" vertex="1" parent="c6tONa4OQSoYcZHLHS9h-34">
          <mxGeometry x="72" y="40.5" width="256" height="144" as="geometry" />
        </mxCell>
        <mxCell id="c6tONa4OQSoYcZHLHS9h-53" value="Back" style="rounded=1;whiteSpace=wrap;html=1;" vertex="1" parent="c6tONa4OQSoYcZHLHS9h-34">
          <mxGeometry x="85" y="147.5" width="120" height="30" as="geometry" />
        </mxCell>
        <mxCell id="c6tONa4OQSoYcZHLHS9h-52" value="&lt;h1&gt;Rules&lt;/h1&gt;&lt;p&gt;Lorem ipsum dolor sit amet, consectetur adipisicing elit, sed do eiusmod tempor incididunt ut labore et dolore magna aliqua.&lt;/p&gt;" style="text;html=1;strokeColor=none;fillColor=none;spacing=5;spacingTop=-20;whiteSpace=wrap;overflow=hidden;rounded=0;" vertex="1" parent="c6tONa4OQSoYcZHLHS9h-34">
          <mxGeometry x="77.5" y="40.5" width="245" height="105" as="geometry" />
        </mxCell>
        <mxCell id="c6tONa4OQSoYcZHLHS9h-54" value="" style="group" vertex="1" connectable="0" parent="1">
          <mxGeometry y="520" width="400" height="225" as="geometry" />
        </mxCell>
        <mxCell id="c6tONa4OQSoYcZHLHS9h-55" value="" style="whiteSpace=wrap;html=1;aspect=fixed;" vertex="1" parent="c6tONa4OQSoYcZHLHS9h-54">
          <mxGeometry width="400" height="225" as="geometry" />
        </mxCell>
        <mxCell id="c6tONa4OQSoYcZHLHS9h-56" value="" style="ellipse;whiteSpace=wrap;html=1;" vertex="1" parent="c6tONa4OQSoYcZHLHS9h-54">
          <mxGeometry x="335" y="170" width="40" height="40" as="geometry" />
        </mxCell>
        <mxCell id="c6tONa4OQSoYcZHLHS9h-57" value="" style="ellipse;whiteSpace=wrap;html=1;" vertex="1" parent="c6tONa4OQSoYcZHLHS9h-54">
          <mxGeometry x="40" y="200" width="20" height="20" as="geometry" />
        </mxCell>
        <mxCell id="c6tONa4OQSoYcZHLHS9h-58" value="" style="ellipse;whiteSpace=wrap;html=1;" vertex="1" parent="c6tONa4OQSoYcZHLHS9h-54">
          <mxGeometry x="10" y="7.5" width="40" height="40" as="geometry" />
        </mxCell>
        <mxCell id="c6tONa4OQSoYcZHLHS9h-59" value="" style="ellipse;whiteSpace=wrap;html=1;" vertex="1" parent="c6tONa4OQSoYcZHLHS9h-54">
          <mxGeometry x="340" y="80" width="30" height="30" as="geometry" />
        </mxCell>
        <mxCell id="c6tONa4OQSoYcZHLHS9h-60" value="" style="ellipse;whiteSpace=wrap;html=1;" vertex="1" parent="c6tONa4OQSoYcZHLHS9h-54">
          <mxGeometry x="340" y="17.5" width="20" height="20" as="geometry" />
        </mxCell>
        <mxCell id="c6tONa4OQSoYcZHLHS9h-61" value="" style="ellipse;whiteSpace=wrap;html=1;" vertex="1" parent="c6tONa4OQSoYcZHLHS9h-54">
          <mxGeometry x="328" y="137.5" width="20" height="20" as="geometry" />
        </mxCell>
        <mxCell id="c6tONa4OQSoYcZHLHS9h-62" value="" style="ellipse;whiteSpace=wrap;html=1;" vertex="1" parent="c6tONa4OQSoYcZHLHS9h-54">
          <mxGeometry x="130" y="195" width="30" height="30" as="geometry" />
        </mxCell>
        <mxCell id="c6tONa4OQSoYcZHLHS9h-63" value="" style="ellipse;whiteSpace=wrap;html=1;" vertex="1" parent="c6tONa4OQSoYcZHLHS9h-54">
          <mxGeometry x="270" y="184.5" width="30" height="30" as="geometry" />
        </mxCell>
        <mxCell id="c6tONa4OQSoYcZHLHS9h-64" value="" style="ellipse;whiteSpace=wrap;html=1;" vertex="1" parent="c6tONa4OQSoYcZHLHS9h-54">
          <mxGeometry x="110" width="20" height="20" as="geometry" />
        </mxCell>
        <mxCell id="c6tONa4OQSoYcZHLHS9h-65" value="" style="ellipse;whiteSpace=wrap;html=1;" vertex="1" parent="c6tONa4OQSoYcZHLHS9h-54">
          <mxGeometry x="220" width="30" height="30" as="geometry" />
        </mxCell>
        <mxCell id="c6tONa4OQSoYcZHLHS9h-66" value="" style="ellipse;whiteSpace=wrap;html=1;" vertex="1" parent="c6tONa4OQSoYcZHLHS9h-54">
          <mxGeometry x="10" y="117.5" width="30" height="30" as="geometry" />
        </mxCell>
        <mxCell id="c6tONa4OQSoYcZHLHS9h-67" value="" style="ellipse;whiteSpace=wrap;html=1;" vertex="1" parent="c6tONa4OQSoYcZHLHS9h-54">
          <mxGeometry x="40" y="70" width="20" height="20" as="geometry" />
        </mxCell>
        <mxCell id="c6tONa4OQSoYcZHLHS9h-68" value="" style="whiteSpace=wrap;html=1;aspect=fixed;" vertex="1" parent="c6tONa4OQSoYcZHLHS9h-54">
          <mxGeometry x="72" y="40.5" width="256" height="144" as="geometry" />
        </mxCell>
        <mxCell id="c6tONa4OQSoYcZHLHS9h-72" value="Play vs Computer" style="rounded=1;whiteSpace=wrap;html=1;" vertex="1" parent="c6tONa4OQSoYcZHLHS9h-54">
          <mxGeometry x="140" y="45.25" width="110" height="20" as="geometry" />
        </mxCell>
        <mxCell id="c6tONa4OQSoYcZHLHS9h-73" value="Local Multiplayer" style="rounded=1;whiteSpace=wrap;html=1;" vertex="1" parent="c6tONa4OQSoYcZHLHS9h-54">
          <mxGeometry x="140" y="75.25" width="110" height="20" as="geometry" />
        </mxCell>
        <mxCell id="c6tONa4OQSoYcZHLHS9h-74" value="Host Online Game" style="rounded=1;whiteSpace=wrap;html=1;" vertex="1" parent="c6tONa4OQSoYcZHLHS9h-54">
          <mxGeometry x="140" y="105.25" width="110" height="20" as="geometry" />
        </mxCell>
        <mxCell id="c6tONa4OQSoYcZHLHS9h-75" value="Join Online Game" style="rounded=1;whiteSpace=wrap;html=1;" vertex="1" parent="c6tONa4OQSoYcZHLHS9h-54">
          <mxGeometry x="140" y="132.75" width="110" height="20" as="geometry" />
        </mxCell>
        <mxCell id="c6tONa4OQSoYcZHLHS9h-95" value="Back" style="rounded=1;whiteSpace=wrap;html=1;" vertex="1" parent="c6tONa4OQSoYcZHLHS9h-54">
          <mxGeometry x="140" y="159.75" width="110" height="20" as="geometry" />
        </mxCell>
        <mxCell id="c6tONa4OQSoYcZHLHS9h-76" value="" style="group" vertex="1" connectable="0" parent="1">
          <mxGeometry x="427" y="520" width="400" height="225" as="geometry" />
        </mxCell>
        <mxCell id="c6tONa4OQSoYcZHLHS9h-77" value="" style="whiteSpace=wrap;html=1;aspect=fixed;" vertex="1" parent="c6tONa4OQSoYcZHLHS9h-76">
          <mxGeometry width="400" height="225" as="geometry" />
        </mxCell>
        <mxCell id="c6tONa4OQSoYcZHLHS9h-78" value="" style="ellipse;whiteSpace=wrap;html=1;" vertex="1" parent="c6tONa4OQSoYcZHLHS9h-76">
          <mxGeometry x="335" y="170" width="40" height="40" as="geometry" />
        </mxCell>
        <mxCell id="c6tONa4OQSoYcZHLHS9h-79" value="" style="ellipse;whiteSpace=wrap;html=1;" vertex="1" parent="c6tONa4OQSoYcZHLHS9h-76">
          <mxGeometry x="40" y="200" width="20" height="20" as="geometry" />
        </mxCell>
        <mxCell id="c6tONa4OQSoYcZHLHS9h-80" value="" style="ellipse;whiteSpace=wrap;html=1;" vertex="1" parent="c6tONa4OQSoYcZHLHS9h-76">
          <mxGeometry x="10" y="7.5" width="40" height="40" as="geometry" />
        </mxCell>
        <mxCell id="c6tONa4OQSoYcZHLHS9h-81" value="" style="ellipse;whiteSpace=wrap;html=1;" vertex="1" parent="c6tONa4OQSoYcZHLHS9h-76">
          <mxGeometry x="340" y="80" width="30" height="30" as="geometry" />
        </mxCell>
        <mxCell id="c6tONa4OQSoYcZHLHS9h-82" value="" style="ellipse;whiteSpace=wrap;html=1;" vertex="1" parent="c6tONa4OQSoYcZHLHS9h-76">
          <mxGeometry x="340" y="17.5" width="20" height="20" as="geometry" />
        </mxCell>
        <mxCell id="c6tONa4OQSoYcZHLHS9h-83" value="" style="ellipse;whiteSpace=wrap;html=1;" vertex="1" parent="c6tONa4OQSoYcZHLHS9h-76">
          <mxGeometry x="328" y="137.5" width="20" height="20" as="geometry" />
        </mxCell>
        <mxCell id="c6tONa4OQSoYcZHLHS9h-84" value="" style="ellipse;whiteSpace=wrap;html=1;" vertex="1" parent="c6tONa4OQSoYcZHLHS9h-76">
          <mxGeometry x="130" y="195" width="30" height="30" as="geometry" />
        </mxCell>
        <mxCell id="c6tONa4OQSoYcZHLHS9h-85" value="" style="ellipse;whiteSpace=wrap;html=1;" vertex="1" parent="c6tONa4OQSoYcZHLHS9h-76">
          <mxGeometry x="270" y="184.5" width="30" height="30" as="geometry" />
        </mxCell>
        <mxCell id="c6tONa4OQSoYcZHLHS9h-86" value="" style="ellipse;whiteSpace=wrap;html=1;" vertex="1" parent="c6tONa4OQSoYcZHLHS9h-76">
          <mxGeometry x="110" width="20" height="20" as="geometry" />
        </mxCell>
        <mxCell id="c6tONa4OQSoYcZHLHS9h-87" value="" style="ellipse;whiteSpace=wrap;html=1;" vertex="1" parent="c6tONa4OQSoYcZHLHS9h-76">
          <mxGeometry x="220" width="30" height="30" as="geometry" />
        </mxCell>
        <mxCell id="c6tONa4OQSoYcZHLHS9h-88" value="" style="ellipse;whiteSpace=wrap;html=1;" vertex="1" parent="c6tONa4OQSoYcZHLHS9h-76">
          <mxGeometry x="10" y="117.5" width="30" height="30" as="geometry" />
        </mxCell>
        <mxCell id="c6tONa4OQSoYcZHLHS9h-89" value="" style="ellipse;whiteSpace=wrap;html=1;" vertex="1" parent="c6tONa4OQSoYcZHLHS9h-76">
          <mxGeometry x="40" y="70" width="20" height="20" as="geometry" />
        </mxCell>
        <mxCell id="c6tONa4OQSoYcZHLHS9h-90" value="" style="whiteSpace=wrap;html=1;aspect=fixed;" vertex="1" parent="c6tONa4OQSoYcZHLHS9h-76">
          <mxGeometry x="72" y="40.5" width="256" height="144" as="geometry" />
        </mxCell>
        <mxCell id="c6tONa4OQSoYcZHLHS9h-96" value="Start" style="rounded=1;whiteSpace=wrap;html=1;" vertex="1" parent="c6tONa4OQSoYcZHLHS9h-76">
          <mxGeometry x="140" y="55" width="120" height="30" as="geometry" />
        </mxCell>
        <mxCell id="c6tONa4OQSoYcZHLHS9h-97" value="Advanced Setup" style="rounded=1;whiteSpace=wrap;html=1;" vertex="1" parent="c6tONa4OQSoYcZHLHS9h-76">
          <mxGeometry x="140" y="97.5" width="120" height="30" as="geometry" />
        </mxCell>
        <mxCell id="c6tONa4OQSoYcZHLHS9h-98" value="Back" style="rounded=1;whiteSpace=wrap;html=1;" vertex="1" parent="c6tONa4OQSoYcZHLHS9h-76">
          <mxGeometry x="140" y="140" width="120" height="30" as="geometry" />
        </mxCell>
        <mxCell id="c6tONa4OQSoYcZHLHS9h-99" value="" style="group" vertex="1" connectable="0" parent="1">
          <mxGeometry x="427" y="250" width="400" height="225" as="geometry" />
        </mxCell>
        <mxCell id="c6tONa4OQSoYcZHLHS9h-100" value="" style="whiteSpace=wrap;html=1;aspect=fixed;" vertex="1" parent="c6tONa4OQSoYcZHLHS9h-99">
          <mxGeometry width="400" height="225" as="geometry" />
        </mxCell>
        <mxCell id="c6tONa4OQSoYcZHLHS9h-101" value="" style="ellipse;whiteSpace=wrap;html=1;" vertex="1" parent="c6tONa4OQSoYcZHLHS9h-99">
          <mxGeometry x="335" y="170" width="40" height="40" as="geometry" />
        </mxCell>
        <mxCell id="c6tONa4OQSoYcZHLHS9h-102" value="" style="ellipse;whiteSpace=wrap;html=1;" vertex="1" parent="c6tONa4OQSoYcZHLHS9h-99">
          <mxGeometry x="40" y="200" width="20" height="20" as="geometry" />
        </mxCell>
        <mxCell id="c6tONa4OQSoYcZHLHS9h-103" value="" style="ellipse;whiteSpace=wrap;html=1;" vertex="1" parent="c6tONa4OQSoYcZHLHS9h-99">
          <mxGeometry x="10" y="7.5" width="40" height="40" as="geometry" />
        </mxCell>
        <mxCell id="c6tONa4OQSoYcZHLHS9h-104" value="" style="ellipse;whiteSpace=wrap;html=1;" vertex="1" parent="c6tONa4OQSoYcZHLHS9h-99">
          <mxGeometry x="340" y="80" width="30" height="30" as="geometry" />
        </mxCell>
        <mxCell id="c6tONa4OQSoYcZHLHS9h-105" value="" style="ellipse;whiteSpace=wrap;html=1;" vertex="1" parent="c6tONa4OQSoYcZHLHS9h-99">
          <mxGeometry x="340" y="17.5" width="20" height="20" as="geometry" />
        </mxCell>
        <mxCell id="c6tONa4OQSoYcZHLHS9h-106" value="" style="ellipse;whiteSpace=wrap;html=1;" vertex="1" parent="c6tONa4OQSoYcZHLHS9h-99">
          <mxGeometry x="328" y="137.5" width="20" height="20" as="geometry" />
        </mxCell>
        <mxCell id="c6tONa4OQSoYcZHLHS9h-107" value="" style="ellipse;whiteSpace=wrap;html=1;" vertex="1" parent="c6tONa4OQSoYcZHLHS9h-99">
          <mxGeometry x="130" y="195" width="30" height="30" as="geometry" />
        </mxCell>
        <mxCell id="c6tONa4OQSoYcZHLHS9h-108" value="" style="ellipse;whiteSpace=wrap;html=1;" vertex="1" parent="c6tONa4OQSoYcZHLHS9h-99">
          <mxGeometry x="270" y="184.5" width="30" height="30" as="geometry" />
        </mxCell>
        <mxCell id="c6tONa4OQSoYcZHLHS9h-109" value="" style="ellipse;whiteSpace=wrap;html=1;" vertex="1" parent="c6tONa4OQSoYcZHLHS9h-99">
          <mxGeometry x="110" width="20" height="20" as="geometry" />
        </mxCell>
        <mxCell id="c6tONa4OQSoYcZHLHS9h-110" value="" style="ellipse;whiteSpace=wrap;html=1;" vertex="1" parent="c6tONa4OQSoYcZHLHS9h-99">
          <mxGeometry x="220" width="30" height="30" as="geometry" />
        </mxCell>
        <mxCell id="c6tONa4OQSoYcZHLHS9h-111" value="" style="ellipse;whiteSpace=wrap;html=1;" vertex="1" parent="c6tONa4OQSoYcZHLHS9h-99">
          <mxGeometry x="10" y="117.5" width="30" height="30" as="geometry" />
        </mxCell>
        <mxCell id="c6tONa4OQSoYcZHLHS9h-112" value="" style="ellipse;whiteSpace=wrap;html=1;" vertex="1" parent="c6tONa4OQSoYcZHLHS9h-99">
          <mxGeometry x="40" y="70" width="20" height="20" as="geometry" />
        </mxCell>
        <mxCell id="c6tONa4OQSoYcZHLHS9h-113" value="" style="whiteSpace=wrap;html=1;aspect=fixed;" vertex="1" parent="c6tONa4OQSoYcZHLHS9h-99">
          <mxGeometry x="72" y="40.5" width="256" height="144" as="geometry" />
        </mxCell>
        <mxCell id="c6tONa4OQSoYcZHLHS9h-116" value="Back" style="rounded=1;whiteSpace=wrap;html=1;" vertex="1" parent="c6tONa4OQSoYcZHLHS9h-99">
          <mxGeometry x="145" y="157.5" width="110" height="20" as="geometry" />
        </mxCell>
        <mxCell id="c6tONa4OQSoYcZHLHS9h-118" value="" style="verticalLabelPosition=bottom;shadow=0;dashed=0;align=center;html=1;verticalAlign=top;strokeWidth=1;shape=mxgraph.mockup.forms.horSlider;strokeColor=#999999;sliderStyle=basic;sliderPos=20;handleStyle=circle;fillColor2=#ddeeff;" vertex="1" parent="c6tONa4OQSoYcZHLHS9h-99">
          <mxGeometry x="83" y="127.5" width="150" height="30" as="geometry" />
        </mxCell>
        <mxCell id="c6tONa4OQSoYcZHLHS9h-137" value="" style="verticalLabelPosition=bottom;shadow=0;dashed=0;align=center;html=1;verticalAlign=top;strokeWidth=1;shape=mxgraph.mockup.forms.horSlider;strokeColor=#999999;sliderStyle=basic;sliderPos=66.19;handleStyle=circle;fillColor2=#ddeeff;" vertex="1" parent="c6tONa4OQSoYcZHLHS9h-99">
          <mxGeometry x="83" y="97.5" width="150" height="30" as="geometry" />
        </mxCell>
        <mxCell id="c6tONa4OQSoYcZHLHS9h-142" value="" style="group" vertex="1" connectable="0" parent="c6tONa4OQSoYcZHLHS9h-99">
          <mxGeometry x="83" y="80" width="130" height="10" as="geometry" />
        </mxCell>
        <mxCell id="c6tONa4OQSoYcZHLHS9h-138" value="Setting 1" style="shape=ellipse;fillColor=#eeeeee;strokeColor=#999999;gradientColor=#cccccc;html=1;align=left;spacingLeft=4;fontSize=10;fontColor=#666666;labelPosition=right;shadow=0;" vertex="1" parent="c6tONa4OQSoYcZHLHS9h-142">
          <mxGeometry width="10" height="10" as="geometry" />
        </mxCell>
        <mxCell id="c6tONa4OQSoYcZHLHS9h-140" value="Setting 2" style="shape=ellipse;fillColor=#eeeeee;strokeColor=#999999;gradientColor=#cccccc;html=1;align=left;spacingLeft=4;fontSize=10;fontColor=#666666;labelPosition=right;shadow=0;" vertex="1" parent="c6tONa4OQSoYcZHLHS9h-142">
          <mxGeometry x="60" width="10" height="10" as="geometry" />
        </mxCell>
        <mxCell id="c6tONa4OQSoYcZHLHS9h-141" value="Setting 3" style="shape=ellipse;fillColor=#eeeeee;strokeColor=#999999;gradientColor=#cccccc;html=1;align=left;spacingLeft=4;fontSize=10;fontColor=#666666;labelPosition=right;shadow=0;" vertex="1" parent="c6tONa4OQSoYcZHLHS9h-142">
          <mxGeometry x="120" width="10" height="10" as="geometry" />
        </mxCell>
        <mxCell id="c6tONa4OQSoYcZHLHS9h-143" value="" style="endArrow=classic;html=1;rounded=0;fontSize=10;" edge="1" parent="1" source="L5rqq4pgs3yzmCQWjZke-1" target="c6tONa4OQSoYcZHLHS9h-17">
          <mxGeometry width="50" height="50" relative="1" as="geometry">
            <mxPoint x="420" y="150" as="sourcePoint" />
            <mxPoint x="470" y="100" as="targetPoint" />
          </mxGeometry>
        </mxCell>
        <mxCell id="c6tONa4OQSoYcZHLHS9h-146" value="" style="endArrow=classic;startArrow=classic;html=1;rounded=0;fontSize=10;" edge="1" parent="1" source="c6tONa4OQSoYcZHLHS9h-35" target="c6tONa4OQSoYcZHLHS9h-17">
          <mxGeometry width="50" height="50" relative="1" as="geometry">
            <mxPoint x="420" y="230" as="sourcePoint" />
            <mxPoint x="470" y="180" as="targetPoint" />
          </mxGeometry>
        </mxCell>
        <mxCell id="c6tONa4OQSoYcZHLHS9h-147" value="" style="endArrow=classic;startArrow=classic;html=1;rounded=0;fontSize=10;" edge="1" parent="1" source="c6tONa4OQSoYcZHLHS9h-55" target="c6tONa4OQSoYcZHLHS9h-17">
          <mxGeometry width="50" height="50" relative="1" as="geometry">
            <mxPoint x="420" y="230" as="sourcePoint" />
            <mxPoint x="470" y="180" as="targetPoint" />
          </mxGeometry>
        </mxCell>
        <mxCell id="c6tONa4OQSoYcZHLHS9h-148" value="" style="endArrow=classic;startArrow=classic;html=1;rounded=0;fontSize=10;" edge="1" parent="1" source="c6tONa4OQSoYcZHLHS9h-77" target="c6tONa4OQSoYcZHLHS9h-55">
          <mxGeometry width="50" height="50" relative="1" as="geometry">
            <mxPoint x="370" y="660" as="sourcePoint" />
            <mxPoint x="420" y="610" as="targetPoint" />
          </mxGeometry>
        </mxCell>
        <mxCell id="c6tONa4OQSoYcZHLHS9h-149" value="" style="endArrow=classic;startArrow=classic;html=1;rounded=0;fontSize=10;" edge="1" parent="1" source="c6tONa4OQSoYcZHLHS9h-77" target="c6tONa4OQSoYcZHLHS9h-100">
          <mxGeometry width="50" height="50" relative="1" as="geometry">
            <mxPoint x="390" y="640" as="sourcePoint" />
            <mxPoint x="440" y="590" as="targetPoint" />
          </mxGeometry>
        </mxCell>
        <mxCell id="c6tONa4OQSoYcZHLHS9h-150" value="" style="group;aspect=fixed;" vertex="1" connectable="0" parent="1">
          <mxGeometry x="14" y="790" width="800" height="450" as="geometry" />
        </mxCell>
        <mxCell id="c6tONa4OQSoYcZHLHS9h-151" value="" style="whiteSpace=wrap;html=1;aspect=fixed;" vertex="1" parent="c6tONa4OQSoYcZHLHS9h-150">
          <mxGeometry width="800" height="450" as="geometry" />
        </mxCell>
        <mxCell id="c6tONa4OQSoYcZHLHS9h-176" value="" style="group" vertex="1" connectable="0" parent="c6tONa4OQSoYcZHLHS9h-150">
          <mxGeometry x="36" y="210" width="250" height="50" as="geometry" />
        </mxCell>
        <mxCell id="c6tONa4OQSoYcZHLHS9h-177" value="" style="group" vertex="1" connectable="0" parent="c6tONa4OQSoYcZHLHS9h-176">
          <mxGeometry x="200" width="50" height="50" as="geometry" />
        </mxCell>
        <mxCell id="c6tONa4OQSoYcZHLHS9h-178" value="" style="rounded=0;whiteSpace=wrap;html=1;" vertex="1" parent="c6tONa4OQSoYcZHLHS9h-177">
          <mxGeometry width="50" height="50" as="geometry" />
        </mxCell>
        <mxCell id="c6tONa4OQSoYcZHLHS9h-179" value="" style="ellipse;whiteSpace=wrap;html=1;aspect=fixed;" vertex="1" parent="c6tONa4OQSoYcZHLHS9h-177">
          <mxGeometry x="5" y="5" width="17.5" height="17.5" as="geometry" />
        </mxCell>
        <mxCell id="c6tONa4OQSoYcZHLHS9h-180" value="" style="ellipse;whiteSpace=wrap;html=1;aspect=fixed;" vertex="1" parent="c6tONa4OQSoYcZHLHS9h-177">
          <mxGeometry x="27.5" y="5" width="17.5" height="17.5" as="geometry" />
        </mxCell>
        <mxCell id="c6tONa4OQSoYcZHLHS9h-181" value="" style="ellipse;whiteSpace=wrap;html=1;aspect=fixed;" vertex="1" parent="c6tONa4OQSoYcZHLHS9h-177">
          <mxGeometry x="5" y="27.5" width="17.5" height="17.5" as="geometry" />
        </mxCell>
        <mxCell id="c6tONa4OQSoYcZHLHS9h-182" value="" style="ellipse;whiteSpace=wrap;html=1;aspect=fixed;" vertex="1" parent="c6tONa4OQSoYcZHLHS9h-177">
          <mxGeometry x="27.5" y="27.5" width="17.5" height="17.5" as="geometry" />
        </mxCell>
        <mxCell id="c6tONa4OQSoYcZHLHS9h-183" value="" style="group" vertex="1" connectable="0" parent="c6tONa4OQSoYcZHLHS9h-176">
          <mxGeometry width="250" height="50" as="geometry" />
        </mxCell>
        <mxCell id="c6tONa4OQSoYcZHLHS9h-184" value="" style="rounded=0;whiteSpace=wrap;html=1;" vertex="1" parent="c6tONa4OQSoYcZHLHS9h-183">
          <mxGeometry width="200" height="50" as="geometry" />
        </mxCell>
        <mxCell id="c6tONa4OQSoYcZHLHS9h-185" value="" style="ellipse;whiteSpace=wrap;html=1;aspect=fixed;" vertex="1" parent="c6tONa4OQSoYcZHLHS9h-183">
          <mxGeometry x="5" y="5" width="40" height="40" as="geometry" />
        </mxCell>
        <mxCell id="c6tONa4OQSoYcZHLHS9h-186" value="" style="ellipse;whiteSpace=wrap;html=1;aspect=fixed;" vertex="1" parent="c6tONa4OQSoYcZHLHS9h-183">
          <mxGeometry x="55" y="5" width="40" height="40" as="geometry" />
        </mxCell>
        <mxCell id="c6tONa4OQSoYcZHLHS9h-187" value="" style="ellipse;whiteSpace=wrap;html=1;aspect=fixed;" vertex="1" parent="c6tONa4OQSoYcZHLHS9h-183">
          <mxGeometry x="105" y="5" width="40" height="40" as="geometry" />
        </mxCell>
        <mxCell id="c6tONa4OQSoYcZHLHS9h-188" value="" style="ellipse;whiteSpace=wrap;html=1;aspect=fixed;" vertex="1" parent="c6tONa4OQSoYcZHLHS9h-183">
          <mxGeometry x="155" y="5" width="40" height="40" as="geometry" />
        </mxCell>
        <mxCell id="c6tONa4OQSoYcZHLHS9h-189" value="" style="group" vertex="1" connectable="0" parent="c6tONa4OQSoYcZHLHS9h-183">
          <mxGeometry y="-60" width="250" height="50" as="geometry" />
        </mxCell>
        <mxCell id="c6tONa4OQSoYcZHLHS9h-190" value="" style="group" vertex="1" connectable="0" parent="c6tONa4OQSoYcZHLHS9h-189">
          <mxGeometry x="200" width="50" height="50" as="geometry" />
        </mxCell>
        <mxCell id="c6tONa4OQSoYcZHLHS9h-191" value="" style="rounded=0;whiteSpace=wrap;html=1;" vertex="1" parent="c6tONa4OQSoYcZHLHS9h-190">
          <mxGeometry width="50" height="50" as="geometry" />
        </mxCell>
        <mxCell id="c6tONa4OQSoYcZHLHS9h-192" value="" style="ellipse;whiteSpace=wrap;html=1;aspect=fixed;" vertex="1" parent="c6tONa4OQSoYcZHLHS9h-190">
          <mxGeometry x="5" y="5" width="17.5" height="17.5" as="geometry" />
        </mxCell>
        <mxCell id="c6tONa4OQSoYcZHLHS9h-193" value="" style="ellipse;whiteSpace=wrap;html=1;aspect=fixed;" vertex="1" parent="c6tONa4OQSoYcZHLHS9h-190">
          <mxGeometry x="27.5" y="5" width="17.5" height="17.5" as="geometry" />
        </mxCell>
        <mxCell id="c6tONa4OQSoYcZHLHS9h-194" value="" style="ellipse;whiteSpace=wrap;html=1;aspect=fixed;" vertex="1" parent="c6tONa4OQSoYcZHLHS9h-190">
          <mxGeometry x="5" y="27.5" width="17.5" height="17.5" as="geometry" />
        </mxCell>
        <mxCell id="c6tONa4OQSoYcZHLHS9h-195" value="" style="ellipse;whiteSpace=wrap;html=1;aspect=fixed;" vertex="1" parent="c6tONa4OQSoYcZHLHS9h-190">
          <mxGeometry x="27.5" y="27.5" width="17.5" height="17.5" as="geometry" />
        </mxCell>
        <mxCell id="c6tONa4OQSoYcZHLHS9h-196" value="" style="group" vertex="1" connectable="0" parent="c6tONa4OQSoYcZHLHS9h-189">
          <mxGeometry width="250" height="50" as="geometry" />
        </mxCell>
        <mxCell id="c6tONa4OQSoYcZHLHS9h-197" value="" style="rounded=0;whiteSpace=wrap;html=1;" vertex="1" parent="c6tONa4OQSoYcZHLHS9h-196">
          <mxGeometry width="200" height="50" as="geometry" />
        </mxCell>
        <mxCell id="c6tONa4OQSoYcZHLHS9h-198" value="" style="ellipse;whiteSpace=wrap;html=1;aspect=fixed;" vertex="1" parent="c6tONa4OQSoYcZHLHS9h-196">
          <mxGeometry x="5" y="5" width="40" height="40" as="geometry" />
        </mxCell>
        <mxCell id="c6tONa4OQSoYcZHLHS9h-199" value="" style="ellipse;whiteSpace=wrap;html=1;aspect=fixed;" vertex="1" parent="c6tONa4OQSoYcZHLHS9h-196">
          <mxGeometry x="55" y="5" width="40" height="40" as="geometry" />
        </mxCell>
        <mxCell id="c6tONa4OQSoYcZHLHS9h-200" value="" style="ellipse;whiteSpace=wrap;html=1;aspect=fixed;" vertex="1" parent="c6tONa4OQSoYcZHLHS9h-196">
          <mxGeometry x="105" y="5" width="40" height="40" as="geometry" />
        </mxCell>
        <mxCell id="c6tONa4OQSoYcZHLHS9h-201" value="" style="ellipse;whiteSpace=wrap;html=1;aspect=fixed;" vertex="1" parent="c6tONa4OQSoYcZHLHS9h-196">
          <mxGeometry x="155" y="5" width="40" height="40" as="geometry" />
        </mxCell>
        <mxCell id="c6tONa4OQSoYcZHLHS9h-202" value="" style="group" vertex="1" connectable="0" parent="c6tONa4OQSoYcZHLHS9h-196">
          <mxGeometry y="-58" width="250" height="50" as="geometry" />
        </mxCell>
        <mxCell id="c6tONa4OQSoYcZHLHS9h-203" value="" style="group" vertex="1" connectable="0" parent="c6tONa4OQSoYcZHLHS9h-202">
          <mxGeometry x="200" width="50" height="50" as="geometry" />
        </mxCell>
        <mxCell id="c6tONa4OQSoYcZHLHS9h-204" value="" style="rounded=0;whiteSpace=wrap;html=1;" vertex="1" parent="c6tONa4OQSoYcZHLHS9h-203">
          <mxGeometry width="50" height="50" as="geometry" />
        </mxCell>
        <mxCell id="c6tONa4OQSoYcZHLHS9h-205" value="" style="ellipse;whiteSpace=wrap;html=1;aspect=fixed;" vertex="1" parent="c6tONa4OQSoYcZHLHS9h-203">
          <mxGeometry x="5" y="5" width="17.5" height="17.5" as="geometry" />
        </mxCell>
        <mxCell id="c6tONa4OQSoYcZHLHS9h-206" value="" style="ellipse;whiteSpace=wrap;html=1;aspect=fixed;" vertex="1" parent="c6tONa4OQSoYcZHLHS9h-203">
          <mxGeometry x="27.5" y="5" width="17.5" height="17.5" as="geometry" />
        </mxCell>
        <mxCell id="c6tONa4OQSoYcZHLHS9h-207" value="" style="ellipse;whiteSpace=wrap;html=1;aspect=fixed;" vertex="1" parent="c6tONa4OQSoYcZHLHS9h-203">
          <mxGeometry x="5" y="27.5" width="17.5" height="17.5" as="geometry" />
        </mxCell>
        <mxCell id="c6tONa4OQSoYcZHLHS9h-208" value="" style="ellipse;whiteSpace=wrap;html=1;aspect=fixed;" vertex="1" parent="c6tONa4OQSoYcZHLHS9h-203">
          <mxGeometry x="27.5" y="27.5" width="17.5" height="17.5" as="geometry" />
        </mxCell>
        <mxCell id="c6tONa4OQSoYcZHLHS9h-209" value="" style="group" vertex="1" connectable="0" parent="c6tONa4OQSoYcZHLHS9h-202">
          <mxGeometry width="250" height="50" as="geometry" />
        </mxCell>
        <mxCell id="c6tONa4OQSoYcZHLHS9h-210" value="" style="rounded=0;whiteSpace=wrap;html=1;" vertex="1" parent="c6tONa4OQSoYcZHLHS9h-209">
          <mxGeometry width="200" height="50" as="geometry" />
        </mxCell>
        <mxCell id="c6tONa4OQSoYcZHLHS9h-211" value="" style="ellipse;whiteSpace=wrap;html=1;aspect=fixed;" vertex="1" parent="c6tONa4OQSoYcZHLHS9h-209">
          <mxGeometry x="5" y="5" width="40" height="40" as="geometry" />
        </mxCell>
        <mxCell id="c6tONa4OQSoYcZHLHS9h-212" value="" style="ellipse;whiteSpace=wrap;html=1;aspect=fixed;" vertex="1" parent="c6tONa4OQSoYcZHLHS9h-209">
          <mxGeometry x="55" y="5" width="40" height="40" as="geometry" />
        </mxCell>
        <mxCell id="c6tONa4OQSoYcZHLHS9h-213" value="" style="ellipse;whiteSpace=wrap;html=1;aspect=fixed;" vertex="1" parent="c6tONa4OQSoYcZHLHS9h-209">
          <mxGeometry x="105" y="5" width="40" height="40" as="geometry" />
        </mxCell>
        <mxCell id="c6tONa4OQSoYcZHLHS9h-214" value="" style="ellipse;whiteSpace=wrap;html=1;aspect=fixed;" vertex="1" parent="c6tONa4OQSoYcZHLHS9h-209">
          <mxGeometry x="155" y="5" width="40" height="40" as="geometry" />
        </mxCell>
        <mxCell id="c6tONa4OQSoYcZHLHS9h-215" value="" style="group" vertex="1" connectable="0" parent="c6tONa4OQSoYcZHLHS9h-209">
          <mxGeometry y="-59" width="250" height="50" as="geometry" />
        </mxCell>
        <mxCell id="c6tONa4OQSoYcZHLHS9h-216" value="" style="group" vertex="1" connectable="0" parent="c6tONa4OQSoYcZHLHS9h-215">
          <mxGeometry x="200" width="50" height="50" as="geometry" />
        </mxCell>
        <mxCell id="c6tONa4OQSoYcZHLHS9h-217" value="" style="rounded=0;whiteSpace=wrap;html=1;" vertex="1" parent="c6tONa4OQSoYcZHLHS9h-216">
          <mxGeometry width="50" height="50" as="geometry" />
        </mxCell>
        <mxCell id="c6tONa4OQSoYcZHLHS9h-218" value="" style="ellipse;whiteSpace=wrap;html=1;aspect=fixed;" vertex="1" parent="c6tONa4OQSoYcZHLHS9h-216">
          <mxGeometry x="5" y="5" width="17.5" height="17.5" as="geometry" />
        </mxCell>
        <mxCell id="c6tONa4OQSoYcZHLHS9h-219" value="" style="ellipse;whiteSpace=wrap;html=1;aspect=fixed;" vertex="1" parent="c6tONa4OQSoYcZHLHS9h-216">
          <mxGeometry x="27.5" y="5" width="17.5" height="17.5" as="geometry" />
        </mxCell>
        <mxCell id="c6tONa4OQSoYcZHLHS9h-220" value="" style="ellipse;whiteSpace=wrap;html=1;aspect=fixed;" vertex="1" parent="c6tONa4OQSoYcZHLHS9h-216">
          <mxGeometry x="5" y="27.5" width="17.5" height="17.5" as="geometry" />
        </mxCell>
        <mxCell id="c6tONa4OQSoYcZHLHS9h-221" value="" style="ellipse;whiteSpace=wrap;html=1;aspect=fixed;" vertex="1" parent="c6tONa4OQSoYcZHLHS9h-216">
          <mxGeometry x="27.5" y="27.5" width="17.5" height="17.5" as="geometry" />
        </mxCell>
        <mxCell id="c6tONa4OQSoYcZHLHS9h-222" value="" style="group" vertex="1" connectable="0" parent="c6tONa4OQSoYcZHLHS9h-215">
          <mxGeometry width="200" height="50" as="geometry" />
        </mxCell>
        <mxCell id="c6tONa4OQSoYcZHLHS9h-223" value="" style="rounded=0;whiteSpace=wrap;html=1;" vertex="1" parent="c6tONa4OQSoYcZHLHS9h-222">
          <mxGeometry width="200" height="50" as="geometry" />
        </mxCell>
        <mxCell id="c6tONa4OQSoYcZHLHS9h-224" value="" style="ellipse;whiteSpace=wrap;html=1;aspect=fixed;" vertex="1" parent="c6tONa4OQSoYcZHLHS9h-222">
          <mxGeometry x="5" y="5" width="40" height="40" as="geometry" />
        </mxCell>
        <mxCell id="c6tONa4OQSoYcZHLHS9h-225" value="" style="ellipse;whiteSpace=wrap;html=1;aspect=fixed;" vertex="1" parent="c6tONa4OQSoYcZHLHS9h-222">
          <mxGeometry x="55" y="5" width="40" height="40" as="geometry" />
        </mxCell>
        <mxCell id="c6tONa4OQSoYcZHLHS9h-226" value="" style="ellipse;whiteSpace=wrap;html=1;aspect=fixed;" vertex="1" parent="c6tONa4OQSoYcZHLHS9h-222">
          <mxGeometry x="105" y="5" width="40" height="40" as="geometry" />
        </mxCell>
        <mxCell id="c6tONa4OQSoYcZHLHS9h-227" value="" style="ellipse;whiteSpace=wrap;html=1;aspect=fixed;" vertex="1" parent="c6tONa4OQSoYcZHLHS9h-222">
          <mxGeometry x="155" y="5" width="40" height="40" as="geometry" />
        </mxCell>
        <mxCell id="c6tONa4OQSoYcZHLHS9h-174" value="" style="endArrow=classic;html=1;rounded=0;fontSize=10;" edge="1" parent="1" source="c6tONa4OQSoYcZHLHS9h-55" target="c6tONa4OQSoYcZHLHS9h-151">
          <mxGeometry width="50" height="50" relative="1" as="geometry">
            <mxPoint x="350" y="890" as="sourcePoint" />
            <mxPoint x="400" y="840" as="targetPoint" />
          </mxGeometry>
        </mxCell>
        <mxCell id="c6tONa4OQSoYcZHLHS9h-175" value="" style="endArrow=classic;html=1;rounded=0;fontSize=10;" edge="1" parent="1" source="c6tONa4OQSoYcZHLHS9h-77" target="c6tONa4OQSoYcZHLHS9h-151">
          <mxGeometry width="50" height="50" relative="1" as="geometry">
            <mxPoint x="350" y="890" as="sourcePoint" />
            <mxPoint x="400" y="840" as="targetPoint" />
          </mxGeometry>
        </mxCell>
      </root>
    </mxGraphModel>
  </diagram>
</mxfile>
